HIERARCHY
ROOT mixamorig:Hips
{
	OFFSET 0.000000 103.991501 0.000000
	CHANNELS 6 Xposition Yposition Zposition Xrotation Yrotation Zrotation
	JOINT mixamorig:Spine
	{
		OFFSET 0.000000 10.181602 0.131500
		CHANNELS 6 Xposition Yposition Zposition Xrotation Yrotation Zrotation
		JOINT mixamorig:Spine1
		{
			OFFSET 0.000000 10.083504 -1.000800
			CHANNELS 6 Xposition Yposition Zposition Xrotation Yrotation Zrotation
			JOINT mixamorig:Spine2
			{
				OFFSET 0.000000 9.100006 -1.373400
				CHANNELS 6 Xposition Yposition Zposition Xrotation Yrotation Zrotation
				JOINT mixamorig:Neck
				{
					OFFSET 0.000000 16.671707 -2.516200
					CHANNELS 6 Xposition Yposition Zposition Xrotation Yrotation Zrotation
					JOINT mixamorig:Head
					{
						OFFSET 0.000000 9.617905 1.685000
						CHANNELS 6 Xposition Yposition Zposition Xrotation Yrotation Zrotation
						JOINT mixamorig:HeadTop_End
						{
							OFFSET 0.000000 17.815201 2.585000
							CHANNELS 6 Xposition Yposition Zposition Xrotation Yrotation Zrotation
							End Site
							{
								OFFSET 0.000000 13.794495 0.000000
							}
						}
						JOINT mixamorig:LeftEye
						{
							OFFSET 3.067600 6.409500 9.283600
							CHANNELS 6 Xposition Yposition Zposition Xrotation Yrotation Zrotation
							End Site
							{
								OFFSET 0.000000 13.794495 0.000000
							}
						}
						JOINT mixamorig:RightEye
						{
							OFFSET -3.067600 6.409500 9.283500
							CHANNELS 6 Xposition Yposition Zposition Xrotation Yrotation Zrotation
							End Site
							{
								OFFSET 0.000000 13.794495 0.000000
							}
						}
					}
				}
				JOINT mixamorig:LeftShoulder
				{
					OFFSET 4.570400 10.945999 -2.628000
					CHANNELS 6 Xposition Yposition Zposition Xrotation Yrotation Zrotation
					JOINT mixamorig:LeftArm
					{
						OFFSET 10.592400 -0.524597 -2.232100
						CHANNELS 6 Xposition Yposition Zposition Xrotation Yrotation Zrotation
						JOINT mixamorig:LeftForeArm
						{
							OFFSET 27.841499 0.000000 0.000000
							CHANNELS 6 Xposition Yposition Zposition Xrotation Yrotation Zrotation
							JOINT mixamorig:LeftHand
							{
								OFFSET 28.328800 0.000000 0.000000
								CHANNELS 6 Xposition Yposition Zposition Xrotation Yrotation Zrotation
								JOINT mixamorig:LeftHandThumb1
								{
									OFFSET 2.466103 -1.576218 2.681689
									CHANNELS 6 Xposition Yposition Zposition Xrotation Yrotation Zrotation
									JOINT mixamorig:LeftHandThumb2
									{
										OFFSET 3.229782 -1.864716 1.864716
										CHANNELS 6 Xposition Yposition Zposition Xrotation Yrotation Zrotation
										JOINT mixamorig:LeftHandThumb3
										{
											OFFSET 2.652611 -1.531494 1.531488
											CHANNELS 6 Xposition Yposition Zposition Xrotation Yrotation Zrotation
											JOINT mixamorig:LeftHandThumb4
											{
												OFFSET 1.954605 -1.128494 1.128493
												CHANNELS 6 Xposition Yposition Zposition Xrotation Yrotation Zrotation
												End Site
												{
													OFFSET -0.000404 2.523392 0.000683
												}
											}
										}
									}
								}
								JOINT mixamorig:LeftHandIndex1
								{
									OFFSET 9.109299 -0.518112 2.259867
									CHANNELS 6 Xposition Yposition Zposition Xrotation Yrotation Zrotation
									JOINT mixamorig:LeftHandIndex2
									{
										OFFSET 3.676399 0.000000 0.000000
										CHANNELS 6 Xposition Yposition Zposition Xrotation Yrotation Zrotation
										JOINT mixamorig:LeftHandIndex3
										{
											OFFSET 2.883102 0.000000 0.000000
											CHANNELS 6 Xposition Yposition Zposition Xrotation Yrotation Zrotation
											JOINT mixamorig:LeftHandIndex4
											{
												OFFSET 2.392700 0.000000 0.000000
												CHANNELS 6 Xposition Yposition Zposition Xrotation Yrotation Zrotation
												End Site
												{
													OFFSET 0.000000 2.392700 0.001080
												}
											}
										}
									}
								}
								JOINT mixamorig:LeftHandMiddle1
								{
									OFFSET 9.533401 0.000000 0.000000
									CHANNELS 6 Xposition Yposition Zposition Xrotation Yrotation Zrotation
									JOINT mixamorig:LeftHandMiddle2
									{
										OFFSET 3.698196 0.000000 0.000000
										CHANNELS 6 Xposition Yposition Zposition Xrotation Yrotation Zrotation
										JOINT mixamorig:LeftHandMiddle3
										{
											OFFSET 2.950897 0.000000 0.000000
											CHANNELS 6 Xposition Yposition Zposition Xrotation Yrotation Zrotation
											JOINT mixamorig:LeftHandMiddle4
											{
												OFFSET 2.833900 0.000000 0.000000
												CHANNELS 6 Xposition Yposition Zposition Xrotation Yrotation Zrotation
												End Site
												{
													OFFSET 0.000000 2.833893 0.001278
												}
											}
										}
									}
								}
								JOINT mixamorig:LeftHandRing1
								{
									OFFSET 9.104500 -0.043060 -1.865119
									CHANNELS 6 Xposition Yposition Zposition Xrotation Yrotation Zrotation
									JOINT mixamorig:LeftHandRing2
									{
										OFFSET 3.153999 0.000000 0.000000
										CHANNELS 6 Xposition Yposition Zposition Xrotation Yrotation Zrotation
										JOINT mixamorig:LeftHandRing3
										{
											OFFSET 2.937698 0.000000 0.000000
											CHANNELS 6 Xposition Yposition Zposition Xrotation Yrotation Zrotation
											JOINT mixamorig:LeftHandRing4
											{
												OFFSET 2.647499 0.000000 0.000000
												CHANNELS 6 Xposition Yposition Zposition Xrotation Yrotation Zrotation
												End Site
												{
													OFFSET 0.000000 2.647507 0.001195
												}
											}
										}
									}
								}
								JOINT mixamorig:LeftHandPinky1
								{
									OFFSET 8.077797 -0.486984 -3.806321
									CHANNELS 6 Xposition Yposition Zposition Xrotation Yrotation Zrotation
									JOINT mixamorig:LeftHandPinky2
									{
										OFFSET 3.599998 0.000000 0.000000
										CHANNELS 6 Xposition Yposition Zposition Xrotation Yrotation Zrotation
										JOINT mixamorig:LeftHandPinky3
										{
											OFFSET 2.114197 0.000000 0.000000
											CHANNELS 6 Xposition Yposition Zposition Xrotation Yrotation Zrotation
											JOINT mixamorig:LeftHandPinky4
											{
												OFFSET 1.975700 0.000000 0.000000
												CHANNELS 6 Xposition Yposition Zposition Xrotation Yrotation Zrotation
												End Site
												{
													OFFSET 0.000000 1.975693 0.000892
												}
											}
										}
									}
								}
							}
						}
					}
				}
				JOINT mixamorig:RightShoulder
				{
					OFFSET -4.570000 10.946198 -2.628000
					CHANNELS 6 Xposition Yposition Zposition Xrotation Yrotation Zrotation
					JOINT mixamorig:RightArm
					{
						OFFSET -10.592800 -0.524796 -2.232100
						CHANNELS 6 Xposition Yposition Zposition Xrotation Yrotation Zrotation
						JOINT mixamorig:RightForeArm
						{
							OFFSET -27.841499 0.000000 0.000000
							CHANNELS 6 Xposition Yposition Zposition Xrotation Yrotation Zrotation
							JOINT mixamorig:RightHand
							{
								OFFSET -28.328800 0.000000 0.000000
								CHANNELS 6 Xposition Yposition Zposition Xrotation Yrotation Zrotation
								JOINT mixamorig:RightHandPinky1
								{
									OFFSET -8.076698 -0.486725 -3.806227
									CHANNELS 6 Xposition Yposition Zposition Xrotation Yrotation Zrotation
									JOINT mixamorig:RightHandPinky2
									{
										OFFSET -3.599998 0.000000 0.000000
										CHANNELS 6 Xposition Yposition Zposition Xrotation Yrotation Zrotation
										JOINT mixamorig:RightHandPinky3
										{
											OFFSET -2.114197 0.000000 0.000000
											CHANNELS 6 Xposition Yposition Zposition Xrotation Yrotation Zrotation
											JOINT mixamorig:RightHandPinky4
											{
												OFFSET -1.975700 0.000000 0.000000
												CHANNELS 6 Xposition Yposition Zposition Xrotation Yrotation Zrotation
												End Site
												{
													OFFSET 0.000000 1.975693 0.000919
												}
											}
										}
									}
								}
								JOINT mixamorig:RightHandRing1
								{
									OFFSET -9.103600 -0.043030 -1.865120
									CHANNELS 6 Xposition Yposition Zposition Xrotation Yrotation Zrotation
									JOINT mixamorig:RightHandRing2
									{
										OFFSET -3.153999 0.000000 0.000000
										CHANNELS 6 Xposition Yposition Zposition Xrotation Yrotation Zrotation
										JOINT mixamorig:RightHandRing3
										{
											OFFSET -2.937698 0.000000 0.000000
											CHANNELS 6 Xposition Yposition Zposition Xrotation Yrotation Zrotation
											JOINT mixamorig:RightHandRing4
											{
												OFFSET -2.647499 0.000000 0.000000
												CHANNELS 6 Xposition Yposition Zposition Xrotation Yrotation Zrotation
												End Site
												{
													OFFSET 0.000000 2.647507 0.001231
												}
											}
										}
									}
								}
								JOINT mixamorig:RightHandMiddle1
								{
									OFFSET -9.532501 0.000000 0.000000
									CHANNELS 6 Xposition Yposition Zposition Xrotation Yrotation Zrotation
									JOINT mixamorig:RightHandMiddle2
									{
										OFFSET -3.698196 0.000000 0.000000
										CHANNELS 6 Xposition Yposition Zposition Xrotation Yrotation Zrotation
										JOINT mixamorig:RightHandMiddle3
										{
											OFFSET -2.950897 0.000000 0.000000
											CHANNELS 6 Xposition Yposition Zposition Xrotation Yrotation Zrotation
											JOINT mixamorig:RightHandMiddle4
											{
												OFFSET -2.833900 0.000000 0.000000
												CHANNELS 6 Xposition Yposition Zposition Xrotation Yrotation Zrotation
												End Site
												{
													OFFSET 0.000000 2.833893 0.001318
												}
											}
										}
									}
								}
								JOINT mixamorig:RightHandIndex1
								{
									OFFSET -9.108299 -0.517853 2.259859
									CHANNELS 6 Xposition Yposition Zposition Xrotation Yrotation Zrotation
									JOINT mixamorig:RightHandIndex2
									{
										OFFSET -3.676399 0.000000 0.000000
										CHANNELS 6 Xposition Yposition Zposition Xrotation Yrotation Zrotation
										JOINT mixamorig:RightHandIndex3
										{
											OFFSET -2.883102 0.000000 0.000000
											CHANNELS 6 Xposition Yposition Zposition Xrotation Yrotation Zrotation
											JOINT mixamorig:RightHandIndex4
											{
												OFFSET -2.392700 0.000000 0.000000
												CHANNELS 6 Xposition Yposition Zposition Xrotation Yrotation Zrotation
												End Site
												{
													OFFSET 0.000000 2.392700 0.001113
												}
											}
										}
									}
								}
								JOINT mixamorig:RightHandThumb1
								{
									OFFSET -2.464798 -1.573944 2.681868
									CHANNELS 6 Xposition Yposition Zposition Xrotation Yrotation Zrotation
									JOINT mixamorig:RightHandThumb2
									{
										OFFSET -3.229782 -1.864716 1.864716
										CHANNELS 6 Xposition Yposition Zposition Xrotation Yrotation Zrotation
										JOINT mixamorig:RightHandThumb3
										{
											OFFSET -2.652542 -1.531448 1.531448
											CHANNELS 6 Xposition Yposition Zposition Xrotation Yrotation Zrotation
											JOINT mixamorig:RightHandThumb4
											{
												OFFSET -1.954605 -1.128494 1.128493
												CHANNELS 6 Xposition Yposition Zposition Xrotation Yrotation Zrotation
												End Site
												{
													OFFSET 0.000412 2.523392 0.000704
												}
											}
										}
									}
								}
							}
						}
					}
				}
			}
		}
	}
	JOINT mixamorig:LeftUpLeg
	{
		OFFSET 8.207800 -6.751701 -1.599600
		CHANNELS 6 Xposition Yposition Zposition Xrotation Yrotation Zrotation
		JOINT mixamorig:LeftLeg
		{
			OFFSET 0.000000 -44.370499 0.284600
			CHANNELS 6 Xposition Yposition Zposition Xrotation Yrotation Zrotation
			JOINT mixamorig:LeftFoot
			{
				OFFSET 0.000000 -44.427898 -2.982200
				CHANNELS 6 Xposition Yposition Zposition Xrotation Yrotation Zrotation
				JOINT mixamorig:LeftToeBase
				{
					OFFSET 0.000000 -8.728700 10.710600
					CHANNELS 6 Xposition Yposition Zposition Xrotation Yrotation Zrotation
					JOINT mixamorig:LeftToe_End
					{
						OFFSET 0.000000 -0.000700 9.278099
						CHANNELS 6 Xposition Yposition Zposition Xrotation Yrotation Zrotation
						End Site
						{
							OFFSET 0.000000 9.278100 0.000000
						}
					}
				}
			}
		}
	}
	JOINT mixamorig:RightUpLeg
	{
		OFFSET -8.207800 -6.751701 -1.599600
		CHANNELS 6 Xposition Yposition Zposition Xrotation Yrotation Zrotation
		JOINT mixamorig:RightLeg
		{
			OFFSET 0.000000 -44.370499 0.286200
			CHANNELS 6 Xposition Yposition Zposition Xrotation Yrotation Zrotation
			JOINT mixamorig:RightFoot
			{
				OFFSET 0.000000 -44.427700 -2.983800
				CHANNELS 6 Xposition Yposition Zposition Xrotation Yrotation Zrotation
				JOINT mixamorig:RightToeBase
				{
					OFFSET 0.000000 -8.728700 10.710600
					CHANNELS 6 Xposition Yposition Zposition Xrotation Yrotation Zrotation
					JOINT mixamorig:RightToe_End
					{
						OFFSET 0.000000 -0.000700 9.278100
						CHANNELS 6 Xposition Yposition Zposition Xrotation Yrotation Zrotation
						End Site
						{
							OFFSET 0.000000 9.278100 0.000000
						}
					}
				}
			}
		}
	}
}
MOTION
Frames: 3
Frame Time: 0.016667
0.853113 101.592903 77.533051 -2.879084 -0.947059 3.676622 0.000001 10.181616 0.131498 0.791989 -0.818169 -1.529721 0.000000 10.083511 -1.000786 0.435998 -0.687702 -0.213504 0.000000 9.100011 -1.373419 0.427414 -0.694604 -0.207595 -0.000000 16.671686 -2.516219 -2.018027 0.207555 -1.854076 -0.000000 9.617899 1.684982 -7.978551 -0.348633 -3.896215 -0.000001 17.815201 2.584993 -0.000001 -0.000000 0.000000 3.067598 6.409515 9.283589 -0.000001 -0.000000 0.000000 -3.067600 6.409500 9.283484 -0.000001 -0.000000 0.000000 4.570398 10.945986 -2.628015 2.376594 -12.548428 -10.372028 10.592402 -0.524587 -2.232101 6.278469 -22.263393 -53.631052 27.841501 -0.000001 0.000002 -0.000004 -19.749403 -0.000001 28.328787 -0.000006 0.000004 -21.841251 3.143954 23.454458 2.466110 -1.576198 2.681700 6.277221 16.289415 13.440159 3.229792 -1.864727 1.864712 8.903340 12.226824 -1.301469 2.652601 -1.531477 1.531502 1.871008 3.746217 1.882182 1.954604 -1.128492 1.128513 -0.000002 -0.000001 -0.000003 9.109296 -0.518099 2.259877 0.141746 1.392703 -11.622251 3.676393 -0.000003 0.000003 0.083767 1.072945 -8.927916 2.883103 0.000014 -0.000008 0.020975 0.538104 -4.463576 2.392701 -0.000015 0.000002 -0.000001 -0.000001 -0.000000 9.533401 -0.000004 0.000013 0.141361 1.390815 -11.606254 3.698201 0.000005 -0.000002 0.084067 1.074852 -8.943900 2.950902 -0.000010 -0.000005 0.020972 0.538101 -4.463583 2.833901 -0.000014 -0.000006 0.000002 0.000001 -0.000000 9.104494 -0.043071 -1.865111 0.141746 1.392703 -11.622249 3.153995 -0.000004 -0.000005 0.083765 1.072949 -8.927914 2.937697 -0.000011 -0.000012 0.020977 0.538100 -4.463575 2.647486 -0.000015 -0.000005 -0.000001 -0.000000 0.000002 8.077777 -0.486974 -3.806310 0.943696 5.367209 -11.159119 3.599994 0.000004 -0.000000 0.075361 -2.982094 -9.432464 2.114199 0.000005 -0.000007 0.020970 0.538109 -4.463567 1.975692 0.000014 -0.000010 -0.000000 0.000001 0.000000 -4.570000 10.946188 -2.628006 0.928803 0.432396 11.253722 -10.592794 -0.524798 -2.232093 22.780571 23.927671 56.342008 -27.841482 -0.000005 -0.000001 -0.000000 24.799905 -0.000015 -28.328806 0.000010 -0.000007 -20.624000 -2.698661 -7.145696 -8.076695 -0.486730 -3.806223 0.065106 -0.951197 7.830386 -3.599990 -0.000011 0.000006 0.180038 -1.575118 13.040335 -2.114213 -0.000006 -0.000001 0.045142 -0.792686 6.518949 -1.975705 -0.000000 0.000008 0.000001 0.000000 -0.000001 -9.103591 -0.043046 -1.865117 0.065103 -0.951192 7.830390 -3.153994 -0.000006 0.000000 0.180044 -1.575124 13.040329 -2.937701 0.000001 -0.000002 0.045142 -0.792683 6.518950 -2.647485 0.000000 -0.000001 0.000001 0.000000 0.000000 -9.532496 -0.000014 0.000001 0.065102 -0.951194 7.830390 -3.698194 -0.000013 0.000002 0.180043 -1.575123 13.040330 -2.950894 -0.000027 0.000009 0.045141 -0.792685 6.518948 -2.833896 -0.000001 0.000005 -0.000001 0.000001 0.000001 -9.108302 -0.517854 2.259867 0.065102 -0.951193 7.830390 -3.676392 -0.000006 -0.000009 0.180044 -1.575125 13.040329 -2.883110 -0.000002 0.000003 0.045141 -0.792684 6.518949 -2.392693 -0.000013 0.000012 -0.000001 -0.000000 0.000000 -2.464791 -1.573936 2.681871 7.209049 -23.606986 -7.406012 -3.229794 -1.864703 1.864722 6.867247 -11.189096 1.266677 -2.652535 -1.531451 1.531454 -0.189207 -1.164790 -1.546952 -1.954607 -1.128509 1.128489 -0.000000 0.000001 -0.000002 8.207801 -6.751696 -1.599596 -7.301459 -1.755162 -6.224350 0.000001 -44.370499 0.284599 20.878696 -1.271421 -3.262561 -0.000002 -44.427887 -2.982203 -10.723392 -1.001566 6.626213 -0.000001 -8.728700 10.710588 -0.003397 -0.000001 0.000002 -0.000001 -0.000700 9.278083 0.000000 0.000000 -0.000000 -8.207799 -6.751693 -1.599600 -27.556286 -7.031839 -4.705115 0.000001 -44.370502 0.286201 49.290183 -1.844036 0.985049 -0.000002 -44.427711 -2.983802 10.487983 -0.313695 -7.790293 0.000001 -8.728703 10.710601 -17.641759 -0.012032 1.088370 -0.000000 -0.000694 9.278106 -0.000001 -0.000001 -0.000000 
0.770892 101.584549 79.346802 -2.600105 -0.548034 3.691505 -0.000000 10.181596 0.131488 0.717758 -1.195112 -1.687398 0.000001 10.083498 -1.000801 0.378807 -0.953076 -0.234732 -0.000000 9.100013 -1.373400 0.365880 -0.959437 -0.224806 0.000001 16.671696 -2.516199 -1.957982 0.202498 -1.818993 -0.000000 9.617927 1.685003 -8.065047 -0.325276 -3.854993 0.000001 17.815231 2.584998 -0.000001 0.000000 0.000000 3.067600 6.409515 9.283587 -0.000001 0.000000 0.000000 -3.067598 6.409500 9.283502 -0.000001 0.000000 0.000000 4.570400 10.945968 -2.627991 2.357294 -12.501002 -10.316327 10.592401 -0.524581 -2.232087 6.360361 -22.297588 -52.634206 27.841497 0.000005 -0.000002 -0.000000 -21.718707 0.000009 28.328802 0.000007 0.000007 -21.575056 4.059657 22.128616 2.466094 -1.576210 2.681700 6.277222 16.289417 13.440161 3.229791 -1.864729 1.864717 8.903343 12.226823 -1.301465 2.652618 -1.531489 1.531481 1.871007 3.746217 1.882185 1.954593 -1.128481 1.128503 -0.000000 -0.000000 -0.000002 9.109302 -0.518105 2.259872 0.141748 1.392707 -11.622253 3.676387 0.000001 -0.000010 0.083768 1.072946 -8.927916 2.883106 0.000012 0.000000 0.020977 0.538105 -4.463577 2.392685 0.000002 -0.000006 0.000001 0.000001 0.000000 9.533404 0.000002 0.000002 0.141360 1.390817 -11.606258 3.698211 0.000001 -0.000006 0.084066 1.074852 -8.943900 2.950898 0.000006 -0.000007 0.020974 0.538100 -4.463584 2.833901 -0.000014 0.000002 0.000002 -0.000001 -0.000000 9.104488 -0.043071 -1.865115 0.141748 1.392706 -11.622251 3.153996 0.000000 0.000009 0.083765 1.072949 -8.927914 2.937699 -0.000025 0.000008 0.020976 0.538104 -4.463576 2.647492 -0.000002 -0.000008 0.000001 -0.000001 -0.000000 8.077788 -0.486990 -3.806315 0.943698 5.367209 -11.159122 3.599995 -0.000011 -0.000009 0.075359 -2.982091 -9.432464 2.114194 0.000005 -0.000010 0.020968 0.538109 -4.463565 1.975693 0.000014 -0.000010 0.000000 0.000000 0.000000 -4.569997 10.946175 -2.627991 0.934251 0.533231 11.210727 -10.592800 -0.524809 -2.232102 22.865808 22.764725 56.771129 -27.841501 0.000001 0.000004 0.000007 25.333276 0.000016 -28.328810 0.000006 -0.000010 -20.484837 -2.779514 -7.325463 -8.076707 -0.486730 -3.806221 0.065107 -0.951197 7.830386 -3.599998 -0.000009 0.000010 0.180038 -1.575120 13.040334 -2.114195 -0.000006 0.000002 0.045142 -0.792684 6.518951 -1.975717 0.000001 -0.000004 -0.000001 0.000001 0.000001 -9.103602 -0.043044 -1.865121 0.065103 -0.951194 7.830390 -3.154002 -0.000002 0.000004 0.180043 -1.575123 13.040328 -2.937707 -0.000014 -0.000006 0.045140 -0.792682 6.518950 -2.647493 -0.000001 0.000010 -0.000001 -0.000000 0.000001 -9.532502 0.000003 0.000000 0.065103 -0.951196 7.830390 -3.698201 0.000008 0.000000 0.180042 -1.575123 13.040328 -2.950902 -0.000027 -0.000013 0.045141 -0.792686 6.518948 -2.833894 -0.000015 -0.000011 -0.000001 0.000000 0.000000 -9.108297 -0.517853 2.259861 0.065103 -0.951195 7.830390 -3.676400 -0.000008 0.000001 0.180042 -1.575123 13.040328 -2.883104 0.000012 -0.000003 0.045141 -0.792683 6.518951 -2.392688 -0.000015 0.000002 -0.000001 -0.000000 0.000001 -2.464800 -1.573943 2.681870 7.209049 -23.606985 -7.406008 -3.229794 -1.864701 1.864719 6.867245 -11.189097 1.266677 -2.652525 -1.531435 1.531453 -0.189207 -1.164788 -1.546953 -1.954615 -1.128495 1.128486 0.000001 -0.000001 0.000001 8.207799 -6.751708 -1.599602 -6.176228 -1.772080 -6.335231 -0.000001 -44.370499 0.284595 20.513068 -1.810723 -2.930533 0.000001 -44.427891 -2.982201 -11.722086 -1.100770 6.840075 0.000000 -8.728700 10.710602 -0.005073 0.000001 -0.000002 0.000000 -0.000700 9.278088 0.000000 0.000001 -0.000000 -8.207800 -6.751709 -1.599603 -28.174896 -7.130741 -4.499549 -0.000003 -44.370495 0.286188 43.450846 -3.421133 1.039364 -0.000002 -44.427704 -2.983800 8.653857 -0.213486 -8.891874 -0.000000 -8.728707 10.710584 -14.374973 -0.039609 1.974961 0.000001 -0.000700 9.278098 -0.000000 -0.000000 0.000000 
0.685012 101.413361 81.210930 -2.297574 -0.179503 3.779877 -0.000001 10.181597 0.131503 0.590986 -1.537821 -1.957436 -0.000000 10.083506 -1.000800 0.268690 -1.174321 -0.299362 -0.000000 9.100016 -1.373402 0.250967 -1.180650 -0.284906 -0.000001 16.671707 -2.516206 -1.910420 0.190058 -1.771110 0.000000 9.617905 1.684987 -8.178371 -0.333515 -3.772818 0.000000 17.815186 2.585016 0.000001 -0.000000 -0.000000 3.067600 6.409470 9.283609 0.000001 -0.000000 -0.000000 -3.067601 6.409485 9.283504 0.000001 -0.000000 -0.000000 4.570396 10.946000 -2.628001 2.344558 -12.481290 -10.270215 10.592398 -0.524545 -2.232098 6.558920 -22.058084 -51.604121 27.841501 -0.000000 0.000003 -0.000002 -24.011952 0.000002 28.328787 0.000000 -0.000004 -21.127209 5.192730 20.807944 2.466094 -1.576206 2.681690 6.277219 16.289414 13.440161 3.229779 -1.864716 1.864709 8.903340 12.226823 -1.301464 2.652616 -1.531467 1.531499 1.871009 3.746216 1.882182 1.954602 -1.128506 1.128484 -0.000000 0.000000 0.000001 9.109304 -0.518120 2.259863 0.141746 1.392702 -11.622252 3.676391 0.000002 0.000006 0.083769 1.072945 -8.927920 2.883101 -0.000002 -0.000002 0.020976 0.538105 -4.463575 2.392694 -0.000015 0.000007 0.000001 0.000002 -0.000001 9.533399 0.000004 0.000002 0.141361 1.390815 -11.606255 3.698203 -0.000013 0.000011 0.084069 1.074853 -8.943897 2.950918 -0.000011 0.000008 0.020974 0.538103 -4.463584 2.833911 -0.000015 0.000012 -0.000002 0.000002 -0.000001 9.104493 -0.043069 -1.865115 0.141744 1.392701 -11.622251 3.153996 -0.000001 -0.000002 0.083767 1.072948 -8.927914 2.937697 0.000002 -0.000007 0.020973 0.538104 -4.463575 2.647489 -0.000001 0.000007 -0.000001 -0.000004 0.000001 8.077785 -0.486981 -3.806314 0.943696 5.367207 -11.159123 3.599991 -0.000009 0.000004 0.075360 -2.982092 -9.432463 2.114202 0.000003 0.000007 0.020971 0.538108 -4.463564 1.975700 0.000002 0.000009 0.000002 -0.000001 0.000000 -4.569999 10.946186 -2.628004 0.939101 0.607819 11.196060 -10.592793 -0.524811 -2.232097 23.089475 21.830630 57.108110 -27.841494 0.000015 -0.000002 -0.000014 25.760630 0.000023 -28.328798 0.000004 -0.000011 -20.086575 -2.903517 -7.291205 -8.076707 -0.486713 -3.806231 0.065106 -0.951197 7.830388 -3.599987 -0.000011 0.000002 0.180039 -1.575119 13.040334 -2.114204 -0.000007 0.000004 0.045140 -0.792684 6.518948 -1.975703 -0.000000 -0.000001 0.000000 0.000000 0.000001 -9.103606 -0.043028 -1.865125 0.065103 -0.951193 7.830393 -3.153991 -0.000016 -0.000000 0.180042 -1.575123 13.040327 -2.937697 -0.000001 -0.000016 0.045140 -0.792682 6.518949 -2.647495 -0.000001 0.000003 0.000000 0.000000 0.000001 -9.532508 0.000003 -0.000005 0.065103 -0.951195 7.830393 -3.698205 0.000008 -0.000001 0.180042 -1.575125 13.040327 -2.950886 -0.000026 -0.000007 0.045143 -0.792686 6.518949 -2.833902 -0.000030 0.000004 -0.000001 -0.000000 0.000000 -9.108292 -0.517838 2.259854 0.065103 -0.951195 7.830392 -3.676396 -0.000008 -0.000001 0.180043 -1.575125 13.040327 -2.883110 -0.000004 0.000002 0.045141 -0.792683 6.518949 -2.392703 0.000027 0.000007 -0.000000 0.000000 0.000001 -2.464804 -1.573936 2.681861 7.209047 -23.606985 -7.406008 -3.229795 -1.864684 1.864722 6.867244 -11.189097 1.266677 -2.652543 -1.531465 1.531452 -0.189205 -1.164788 -1.546952 -1.954605 -1.128509 1.128487 -0.000002 -0.000001 0.000000 8.207800 -6.751708 -1.599597 -5.313475 -1.550131 -6.483303 0.000000 -44.370502 0.284606 20.732160 -2.441566 -2.610343 0.000002 -44.427910 -2.982192 -13.043178 -1.225499 6.994196 -0.000000 -8.728701 10.710600 -0.006074 -0.000001 0.000001 0.000000 -0.000700 9.278087 0.000000 0.000001 -0.000000 -8.207801 -6.751698 -1.599590 -28.426766 -7.108746 -4.379965 0.000001 -44.370487 0.286183 36.971350 -4.839247 1.207750 -0.000002 -44.427696 -2.983801 6.716085 -0.070338 -9.904007 -0.000001 -8.728701 10.710608 -8.095764 -0.059526 2.423920 0.000001 -0.000701 9.278090 0.000000 0.000000 -0.000000 
